<?xml version="1.0" encoding="UTF-8" standalone="no"?>
<!DOCTYPE svg PUBLIC "-//W3C//DTD SVG 1.1//EN" "http://www.w3.org/Graphics/SVG/1.1/DTD/svg11.dtd">
<svg width="100%" height="100%" viewBox="0 0 512 256" version="1.1" xmlns="http://www.w3.org/2000/svg" xmlns:xlink="http://www.w3.org/1999/xlink" xml:space="preserve" xmlns:serif="http://www.serif.com/" style="fill-rule:evenodd;clip-rule:evenodd;stroke-linejoin:round;stroke-miterlimit:2;">
    <g id="Artboard1" transform="matrix(1,0,0,0.5,0,0)">
        <rect x="0" y="0" width="512" height="512" style="fill:none;"/>
        <g transform="matrix(1.36189,0,0,2.72378,-339.918,-12.4846)">
            <g transform="matrix(93.5351,0,0,93.5351,259.531,128)">
                <path d="M0.457,-0.272L0.457,-0.076C0.457,-0.05 0.471,-0.037 0.5,-0.037L0.532,-0.037L0.532,-0L0.3,-0L0.3,-0.037L0.326,-0.037C0.359,-0.037 0.376,-0.048 0.376,-0.071L0.376,-0.282C0.376,-0.367 0.346,-0.41 0.288,-0.41C0.253,-0.41 0.225,-0.395 0.203,-0.367C0.181,-0.338 0.17,-0.302 0.17,-0.258L0.17,-0.076C0.17,-0.062 0.173,-0.052 0.18,-0.046C0.188,-0.04 0.201,-0.037 0.22,-0.037L0.243,-0.037L0.243,-0L0.013,-0L0.013,-0.037L0.048,-0.037C0.075,-0.037 0.089,-0.048 0.089,-0.071L0.089,-0.371C0.089,-0.39 0.084,-0.402 0.075,-0.409C0.065,-0.416 0.048,-0.421 0.024,-0.423L0.024,-0.458L0.155,-0.465C0.158,-0.45 0.162,-0.433 0.165,-0.415C0.168,-0.396 0.17,-0.38 0.17,-0.368C0.193,-0.402 0.217,-0.426 0.24,-0.442C0.264,-0.458 0.292,-0.465 0.325,-0.465C0.389,-0.465 0.43,-0.43 0.45,-0.36C0.494,-0.43 0.548,-0.465 0.613,-0.465C0.654,-0.465 0.686,-0.451 0.709,-0.422C0.733,-0.394 0.744,-0.354 0.744,-0.302L0.744,-0.076C0.744,-0.05 0.761,-0.037 0.795,-0.037L0.818,-0.037L0.818,-0L0.588,-0L0.588,-0.037L0.61,-0.037C0.646,-0.037 0.663,-0.05 0.663,-0.076L0.663,-0.302C0.663,-0.336 0.655,-0.362 0.639,-0.38C0.623,-0.399 0.601,-0.409 0.573,-0.409C0.54,-0.409 0.512,-0.394 0.49,-0.365C0.468,-0.336 0.457,-0.305 0.457,-0.272Z" style="fill-rule:nonzero;"/>
            </g>
            <g transform="matrix(93.5351,0,0,93.5351,337.462,128)">
                <path d="M0.406,-0.139L0.438,-0.125C0.391,-0.033 0.322,0.014 0.232,0.014C0.17,0.014 0.119,-0.008 0.078,-0.052C0.036,-0.096 0.016,-0.153 0.016,-0.222C0.016,-0.296 0.036,-0.356 0.076,-0.402C0.116,-0.448 0.167,-0.471 0.229,-0.471C0.292,-0.471 0.342,-0.449 0.379,-0.405C0.416,-0.361 0.435,-0.301 0.435,-0.223L0.107,-0.223C0.107,-0.198 0.109,-0.176 0.112,-0.156C0.115,-0.137 0.121,-0.12 0.129,-0.105C0.155,-0.055 0.197,-0.03 0.253,-0.03C0.316,-0.03 0.367,-0.066 0.406,-0.139ZM0.107,-0.26L0.305,-0.26C0.33,-0.26 0.342,-0.277 0.342,-0.309C0.342,-0.346 0.332,-0.377 0.31,-0.402C0.288,-0.428 0.261,-0.441 0.23,-0.441C0.194,-0.441 0.164,-0.425 0.141,-0.393C0.119,-0.361 0.107,-0.317 0.107,-0.26Z" style="fill-rule:nonzero;"/>
            </g>
            <g transform="matrix(93.5351,0,0,93.5351,380.351,128)">
                <path d="M0.406,-0.139L0.438,-0.125C0.391,-0.033 0.322,0.014 0.232,0.014C0.17,0.014 0.119,-0.008 0.078,-0.052C0.036,-0.096 0.016,-0.153 0.016,-0.222C0.016,-0.296 0.036,-0.356 0.076,-0.402C0.116,-0.448 0.167,-0.471 0.229,-0.471C0.292,-0.471 0.342,-0.449 0.379,-0.405C0.416,-0.361 0.435,-0.301 0.435,-0.223L0.107,-0.223C0.107,-0.198 0.109,-0.176 0.112,-0.156C0.115,-0.137 0.121,-0.12 0.129,-0.105C0.155,-0.055 0.197,-0.03 0.253,-0.03C0.316,-0.03 0.367,-0.066 0.406,-0.139ZM0.107,-0.26L0.305,-0.26C0.33,-0.26 0.342,-0.277 0.342,-0.309C0.342,-0.346 0.332,-0.377 0.31,-0.402C0.288,-0.428 0.261,-0.441 0.23,-0.441C0.194,-0.441 0.164,-0.425 0.141,-0.393C0.119,-0.361 0.107,-0.317 0.107,-0.26Z" style="fill-rule:nonzero;"/>
            </g>
            <g transform="matrix(93.5351,0,0,93.5351,423.24,128)">
                <path d="M0.014,-0.413L0.014,-0.447C0.099,-0.461 0.141,-0.527 0.141,-0.643L0.175,-0.643L0.175,-0.458L0.323,-0.458L0.323,-0.413L0.175,-0.413L0.175,-0.119C0.175,-0.094 0.18,-0.075 0.192,-0.06C0.204,-0.046 0.22,-0.039 0.241,-0.039C0.266,-0.039 0.286,-0.05 0.301,-0.073C0.316,-0.096 0.323,-0.129 0.323,-0.173L0.356,-0.173C0.356,-0.114 0.343,-0.069 0.318,-0.039C0.292,-0.008 0.257,0.008 0.214,0.008C0.177,0.008 0.147,-0.002 0.126,-0.022C0.104,-0.043 0.094,-0.071 0.094,-0.106L0.094,-0.413L0.014,-0.413Z" style="fill-rule:nonzero;"/>
            </g>
            <g transform="matrix(93.5351,0,0,93.5351,495.513,128)">
                <path d="M0.457,-0.272L0.457,-0.076C0.457,-0.05 0.471,-0.037 0.5,-0.037L0.532,-0.037L0.532,-0L0.3,-0L0.3,-0.037L0.326,-0.037C0.359,-0.037 0.376,-0.048 0.376,-0.071L0.376,-0.282C0.376,-0.367 0.346,-0.41 0.288,-0.41C0.253,-0.41 0.225,-0.395 0.203,-0.367C0.181,-0.338 0.17,-0.302 0.17,-0.258L0.17,-0.076C0.17,-0.062 0.173,-0.052 0.18,-0.046C0.188,-0.04 0.201,-0.037 0.22,-0.037L0.243,-0.037L0.243,-0L0.013,-0L0.013,-0.037L0.048,-0.037C0.075,-0.037 0.089,-0.048 0.089,-0.071L0.089,-0.371C0.089,-0.39 0.084,-0.402 0.075,-0.409C0.065,-0.416 0.048,-0.421 0.024,-0.423L0.024,-0.458L0.155,-0.465C0.158,-0.45 0.162,-0.433 0.165,-0.415C0.168,-0.396 0.17,-0.38 0.17,-0.368C0.193,-0.402 0.217,-0.426 0.24,-0.442C0.264,-0.458 0.292,-0.465 0.325,-0.465C0.389,-0.465 0.43,-0.43 0.45,-0.36C0.494,-0.43 0.548,-0.465 0.613,-0.465C0.654,-0.465 0.686,-0.451 0.709,-0.422C0.733,-0.394 0.744,-0.354 0.744,-0.302L0.744,-0.076C0.744,-0.05 0.761,-0.037 0.795,-0.037L0.818,-0.037L0.818,-0L0.588,-0L0.588,-0.037L0.61,-0.037C0.646,-0.037 0.663,-0.05 0.663,-0.076L0.663,-0.302C0.663,-0.336 0.655,-0.362 0.639,-0.38C0.623,-0.399 0.601,-0.409 0.573,-0.409C0.54,-0.409 0.512,-0.394 0.49,-0.365C0.468,-0.336 0.457,-0.305 0.457,-0.272Z" style="fill-rule:nonzero;"/>
            </g>
            <g transform="matrix(93.5351,0,0,93.5351,573.444,128)">
                <path d="M0.406,-0.139L0.438,-0.125C0.391,-0.033 0.322,0.014 0.232,0.014C0.17,0.014 0.119,-0.008 0.078,-0.052C0.036,-0.096 0.016,-0.153 0.016,-0.222C0.016,-0.296 0.036,-0.356 0.076,-0.402C0.116,-0.448 0.167,-0.471 0.229,-0.471C0.292,-0.471 0.342,-0.449 0.379,-0.405C0.416,-0.361 0.435,-0.301 0.435,-0.223L0.107,-0.223C0.107,-0.198 0.109,-0.176 0.112,-0.156C0.115,-0.137 0.121,-0.12 0.129,-0.105C0.155,-0.055 0.197,-0.03 0.253,-0.03C0.316,-0.03 0.367,-0.066 0.406,-0.139ZM0.107,-0.26L0.305,-0.26C0.33,-0.26 0.342,-0.277 0.342,-0.309C0.342,-0.346 0.332,-0.377 0.31,-0.402C0.288,-0.428 0.261,-0.441 0.23,-0.441C0.194,-0.441 0.164,-0.425 0.141,-0.393C0.119,-0.361 0.107,-0.317 0.107,-0.26Z" style="fill-rule:nonzero;"/>
            </g>
        </g>
    </g>
</svg>
